<svg xmlns="http://www.w3.org/2000/svg" xmlns:xlink="http://www.w3.org/1999/xlink" width="500" zoomAndPan="magnify" viewBox="0 0 375 374.999991" height="500" preserveAspectRatio="xMidYMid meet" version="1.0"><defs><g/></defs><rect x="-37.5" width="450" fill="#ffffff" y="-37.499999" height="449.999989" fill-opacity="1"/><rect x="-37.5" width="450" fill="#ffffff" y="-37.499999" height="449.999989" fill-opacity="1"/><rect x="-37.5" width="450" fill="#93c5fd" y="-37.499999" height="449.999989" fill-opacity="1"/><g fill="#000000" fill-opacity="1"><g transform="translate(6.960942, 278.00248)"><g><path d="M 95.984375 0 L 15.25 0 C 13.082031 0 12 -1 12 -3 L 12 -15.75 C 12 -17.75 13.082031 -18.75 15.25 -18.75 L 34.25 -18.75 L 34.25 -160.734375 L 15.25 -160.734375 C 13.082031 -160.734375 12 -161.734375 12 -163.734375 L 12 -176.484375 C 12 -178.484375 13.082031 -179.484375 15.25 -179.484375 L 95.734375 -179.484375 C 112.398438 -179.484375 125.359375 -175.066406 134.609375 -166.234375 C 143.859375 -157.398438 148.484375 -145.816406 148.484375 -131.484375 C 148.484375 -114.648438 141.066406 -102.066406 126.234375 -93.734375 C 147.566406 -87.566406 158.234375 -73.40625 158.234375 -51.25 C 158.234375 -35.582031 153.023438 -23.125 142.609375 -13.875 C 132.191406 -4.625 116.648438 0 95.984375 0 Z M 56 -18.75 L 94.234375 -18.75 C 107.398438 -18.75 117.691406 -21.539062 125.109375 -27.125 C 132.523438 -32.707031 136.234375 -41.332031 136.234375 -53 C 136.234375 -73.820312 122.734375 -84.234375 95.734375 -84.234375 L 56 -84.234375 Z M 56 -100.734375 L 94.234375 -100.734375 C 102.898438 -100.898438 110.441406 -103.398438 116.859375 -108.234375 C 123.273438 -113.066406 126.484375 -120.648438 126.484375 -130.984375 C 126.484375 -141.316406 123.109375 -148.859375 116.359375 -153.609375 C 109.609375 -158.359375 101.316406 -160.734375 91.484375 -160.734375 L 56 -160.734375 Z M 56 -100.734375 "/></g></g></g><g fill="#000000" fill-opacity="1"><g transform="translate(177.193605, 278.00248)"><g><path d="M 172.484375 0 L 159.234375 0 C 157.066406 0 155.984375 -1 155.984375 -3 L 156.234375 -20.25 C 141.566406 -5.582031 122.023438 1.75 97.609375 1.75 C 73.203125 1.75 52.832031 -6.75 36.5 -23.75 C 20.164062 -40.75 12 -63.078125 12 -90.734375 C 12 -109.234375 16.125 -125.484375 24.375 -139.484375 C 32.625 -153.484375 43.117188 -163.898438 55.859375 -170.734375 C 68.609375 -177.566406 82.398438 -180.984375 97.234375 -180.984375 C 122.734375 -180.984375 141.066406 -173.066406 152.234375 -157.234375 L 151.984375 -176.484375 C 151.648438 -178.484375 152.648438 -179.484375 154.984375 -179.484375 L 168.984375 -179.484375 C 171.148438 -179.484375 172.234375 -178.484375 172.234375 -176.484375 L 172.234375 -124.984375 C 172.234375 -122.984375 171.148438 -121.984375 168.984375 -121.984375 L 153.234375 -121.984375 C 151.234375 -121.984375 150.234375 -122.984375 150.234375 -124.984375 L 150.234375 -127.984375 C 150.234375 -135.316406 145.191406 -142.566406 135.109375 -149.734375 C 125.023438 -156.898438 112.148438 -160.484375 96.484375 -160.484375 C 80.816406 -160.484375 66.691406 -154.023438 54.109375 -141.109375 C 41.535156 -128.191406 35.25 -110.941406 35.25 -89.359375 C 35.25 -67.785156 41.578125 -50.707031 54.234375 -38.125 C 66.898438 -25.539062 81.066406 -19.25 96.734375 -19.25 C 112.398438 -19.25 124.773438 -21.75 133.859375 -26.75 C 142.941406 -31.75 149.734375 -37.664062 154.234375 -44.5 L 154.234375 -63.984375 L 107.734375 -63.984375 C 105.734375 -63.984375 104.734375 -65.066406 104.734375 -67.234375 L 104.734375 -78.734375 C 104.734375 -80.734375 105.734375 -81.734375 107.734375 -81.734375 L 172.484375 -81.734375 C 174.484375 -81.734375 175.484375 -80.734375 175.484375 -78.734375 L 175.484375 -3 C 175.484375 -1 174.484375 0 172.484375 0 Z M 172.484375 0 "/></g></g></g></svg>