<svg xmlns="http://www.w3.org/2000/svg" xmlns:xlink="http://www.w3.org/1999/xlink" width="500" zoomAndPan="magnify" viewBox="0 0 375 374.999991" height="500" preserveAspectRatio="xMidYMid meet" version="1.0"><defs><g/><clipPath id="5ff39b0165"><path d="M 0 14.53125 L 375 14.53125 L 375 360.988281 L 0 360.988281 Z M 0 14.53125 " clip-rule="nonzero"/></clipPath><clipPath id="451f060295"><path d="M 451.484375 360.46875 L -51.605469 316.488281 L -51.605469 14.53125 L 451.484375 58.511719 L 451.484375 360.46875 " clip-rule="nonzero"/></clipPath><clipPath id="fb40bd1594"><path d="M 127.382812 117.292969 L 246.632812 117.292969 L 246.632812 219.292969 L 127.382812 219.292969 Z M 127.382812 117.292969 " clip-rule="nonzero"/></clipPath></defs><g clip-path="url(#5ff39b0165)"><g clip-path="url(#451f060295)"><path fill="#61ff00" d="M -51.605469 14.53125 L 451.832031 14.53125 L 451.832031 360.296875 L -51.605469 360.296875 Z M -51.605469 14.53125 " fill-opacity="1" fill-rule="nonzero"/></g></g><g fill="#000000" fill-opacity="1"><g transform="translate(246.122127, 230.208715)"><g><path d="M 80.734375 0 L 74.53125 0 C 73.519531 0 73.015625 -0.46875 73.015625 -1.40625 L 73.140625 -9.484375 C 66.273438 -2.617188 57.125 0.8125 45.6875 0.8125 C 34.257812 0.8125 24.722656 -3.160156 17.078125 -11.109375 C 9.429688 -19.066406 5.609375 -29.523438 5.609375 -42.484375 C 5.609375 -51.140625 7.539062 -58.742188 11.40625 -65.296875 C 15.269531 -71.847656 20.1875 -76.722656 26.15625 -79.921875 C 32.125 -83.117188 38.578125 -84.71875 45.515625 -84.71875 C 57.453125 -84.71875 66.035156 -81.015625 71.265625 -73.609375 L 71.140625 -82.609375 C 70.984375 -83.546875 71.453125 -84.015625 72.546875 -84.015625 L 79.109375 -84.015625 C 80.117188 -84.015625 80.625 -83.546875 80.625 -82.609375 L 80.625 -58.5 C 80.625 -57.570312 80.117188 -57.109375 79.109375 -57.109375 L 71.734375 -57.109375 C 70.796875 -57.109375 70.328125 -57.570312 70.328125 -58.5 L 70.328125 -59.90625 C 70.328125 -63.34375 67.96875 -66.738281 63.25 -70.09375 C 58.53125 -73.445312 52.503906 -75.125 45.171875 -75.125 C 37.835938 -75.125 31.222656 -72.097656 25.328125 -66.046875 C 19.441406 -60.003906 16.5 -51.929688 16.5 -41.828125 C 16.5 -31.722656 19.460938 -23.726562 25.390625 -17.84375 C 31.316406 -11.957031 37.945312 -9.015625 45.28125 -9.015625 C 52.613281 -9.015625 58.40625 -10.179688 62.65625 -12.515625 C 66.914062 -14.859375 70.097656 -17.628906 72.203125 -20.828125 L 72.203125 -29.953125 L 50.4375 -29.953125 C 49.5 -29.953125 49.03125 -30.460938 49.03125 -31.484375 L 49.03125 -36.859375 C 49.03125 -37.796875 49.5 -38.265625 50.4375 -38.265625 L 80.734375 -38.265625 C 81.671875 -38.265625 82.140625 -37.796875 82.140625 -36.859375 L 82.140625 -1.40625 C 82.140625 -0.46875 81.671875 0 80.734375 0 Z M 80.734375 0 "/></g></g></g><g clip-path="url(#fb40bd1594)"><path fill="#000000" d="M 233.855469 159.796875 L 191.265625 159.796875 L 191.265625 147.054688 C 191.265625 146.773438 191.292969 146.5 191.347656 146.226562 C 191.402344 145.953125 191.484375 145.6875 191.589844 145.429688 C 191.699219 145.171875 191.828125 144.925781 191.984375 144.695312 C 192.140625 144.460938 192.316406 144.246094 192.515625 144.050781 C 192.710938 143.851562 192.925781 143.675781 193.160156 143.523438 C 193.390625 143.367188 193.636719 143.238281 193.894531 143.128906 C 194.15625 143.023438 194.421875 142.941406 194.695312 142.886719 C 194.96875 142.832031 195.246094 142.804688 195.527344 142.804688 L 221.078125 142.804688 C 221.917969 142.804688 222.75 142.726562 223.574219 142.5625 C 224.394531 142.398438 225.195312 142.15625 225.96875 141.835938 C 226.746094 141.515625 227.480469 141.125 228.179688 140.660156 C 228.875 140.195312 229.519531 139.664062 230.113281 139.074219 C 230.707031 138.480469 231.238281 137.839844 231.703125 137.144531 C 232.167969 136.445312 232.5625 135.710938 232.882812 134.9375 C 233.203125 134.167969 233.449219 133.371094 233.609375 132.546875 C 233.773438 131.726562 233.855469 130.898438 233.855469 130.0625 L 233.855469 121.566406 C 233.855469 121.289062 233.828125 121.011719 233.773438 120.738281 C 233.71875 120.464844 233.640625 120.199219 233.53125 119.941406 C 233.425781 119.683594 233.292969 119.4375 233.140625 119.207031 C 232.984375 118.976562 232.808594 118.761719 232.609375 118.5625 C 232.410156 118.367188 232.195312 118.191406 231.964844 118.035156 C 231.730469 117.878906 231.484375 117.75 231.226562 117.640625 C 230.96875 117.535156 230.703125 117.453125 230.429688 117.402344 C 230.152344 117.347656 229.878906 117.320312 229.597656 117.320312 C 229.316406 117.320312 229.039062 117.347656 228.765625 117.402344 C 228.492188 117.453125 228.226562 117.535156 227.96875 117.640625 C 227.710938 117.75 227.464844 117.878906 227.230469 118.035156 C 227 118.191406 226.785156 118.367188 226.585938 118.5625 C 226.386719 118.761719 226.210938 118.976562 226.054688 119.207031 C 225.902344 119.4375 225.769531 119.683594 225.664062 119.941406 C 225.554688 120.199219 225.476562 120.464844 225.421875 120.738281 C 225.367188 121.011719 225.339844 121.289062 225.339844 121.566406 L 225.339844 130.0625 C 225.339844 130.339844 225.3125 130.617188 225.257812 130.890625 C 225.203125 131.164062 225.121094 131.429688 225.015625 131.6875 C 224.90625 131.945312 224.777344 132.191406 224.621094 132.421875 C 224.464844 132.65625 224.289062 132.867188 224.089844 133.066406 C 223.894531 133.261719 223.679688 133.441406 223.445312 133.59375 C 223.214844 133.75 222.96875 133.878906 222.710938 133.988281 C 222.453125 134.09375 222.183594 134.175781 221.910156 134.230469 C 221.636719 134.285156 221.359375 134.3125 221.078125 134.3125 L 195.527344 134.3125 C 194.6875 134.3125 193.855469 134.390625 193.035156 134.554688 C 192.210938 134.71875 191.410156 134.960938 190.636719 135.28125 C 189.863281 135.601562 189.125 135.992188 188.429688 136.457031 C 187.730469 136.921875 187.085938 137.453125 186.492188 138.042969 C 185.898438 138.636719 185.367188 139.277344 184.902344 139.972656 C 184.4375 140.671875 184.042969 141.40625 183.722656 142.175781 C 183.402344 142.949219 183.160156 143.746094 182.996094 144.566406 C 182.832031 145.390625 182.75 146.21875 182.75 147.054688 L 182.75 159.796875 L 140.160156 159.796875 C 139.320312 159.796875 138.492188 159.878906 137.667969 160.042969 C 136.84375 160.207031 136.046875 160.449219 135.269531 160.769531 C 134.496094 161.089844 133.757812 161.480469 133.0625 161.945312 C 132.363281 162.410156 131.71875 162.9375 131.125 163.53125 C 130.53125 164.121094 130.003906 164.765625 129.535156 165.460938 C 129.070312 166.15625 128.675781 166.890625 128.355469 167.664062 C 128.035156 168.4375 127.792969 169.234375 127.628906 170.054688 C 127.464844 170.875 127.382812 171.703125 127.382812 172.542969 L 127.382812 206.523438 C 127.382812 207.363281 127.464844 208.191406 127.628906 209.011719 C 127.792969 209.832031 128.035156 210.628906 128.355469 211.402344 C 128.675781 212.175781 129.070312 212.910156 129.535156 213.605469 C 130.003906 214.300781 130.53125 214.945312 131.125 215.535156 C 131.71875 216.128906 132.363281 216.65625 133.0625 217.121094 C 133.757812 217.585938 134.496094 217.976562 135.269531 218.296875 C 136.046875 218.617188 136.84375 218.859375 137.667969 219.023438 C 138.492188 219.1875 139.320312 219.269531 140.160156 219.269531 L 233.855469 219.269531 C 234.695312 219.269531 235.527344 219.1875 236.347656 219.023438 C 237.171875 218.859375 237.972656 218.617188 238.746094 218.296875 C 239.519531 217.976562 240.257812 217.585938 240.953125 217.121094 C 241.652344 216.65625 242.296875 216.128906 242.890625 215.535156 C 243.484375 214.945312 244.015625 214.300781 244.480469 213.605469 C 244.945312 212.910156 245.339844 212.175781 245.660156 211.402344 C 245.980469 210.628906 246.222656 209.832031 246.386719 209.011719 C 246.550781 208.191406 246.632812 207.363281 246.632812 206.523438 L 246.632812 172.542969 C 246.632812 171.703125 246.550781 170.875 246.386719 170.054688 C 246.222656 169.234375 245.980469 168.4375 245.660156 167.664062 C 245.339844 166.890625 244.945312 166.15625 244.480469 165.460938 C 244.015625 164.765625 243.484375 164.121094 242.890625 163.53125 C 242.296875 162.9375 241.652344 162.410156 240.953125 161.945312 C 240.257812 161.480469 239.519531 161.089844 238.746094 160.769531 C 237.972656 160.449219 237.171875 160.207031 236.347656 160.042969 C 235.527344 159.878906 234.695312 159.796875 233.855469 159.796875 Z M 238.117188 206.523438 C 238.117188 206.804688 238.089844 207.082031 238.035156 207.355469 C 237.980469 207.628906 237.898438 207.894531 237.792969 208.152344 C 237.683594 208.410156 237.554688 208.652344 237.398438 208.886719 C 237.242188 209.117188 237.066406 209.332031 236.867188 209.527344 C 236.671875 209.726562 236.457031 209.902344 236.222656 210.058594 C 235.988281 210.210938 235.746094 210.34375 235.488281 210.449219 C 235.226562 210.554688 234.960938 210.636719 234.6875 210.691406 C 234.414062 210.746094 234.136719 210.773438 233.855469 210.773438 L 140.160156 210.773438 C 139.878906 210.773438 139.601562 210.746094 139.328125 210.691406 C 139.054688 210.636719 138.789062 210.554688 138.53125 210.449219 C 138.273438 210.34375 138.027344 210.210938 137.792969 210.058594 C 137.5625 209.902344 137.347656 209.726562 137.148438 209.527344 C 136.949219 209.332031 136.773438 209.117188 136.617188 208.886719 C 136.464844 208.652344 136.332031 208.410156 136.226562 208.152344 C 136.117188 207.894531 136.039062 207.628906 135.984375 207.355469 C 135.929688 207.082031 135.902344 206.804688 135.902344 206.523438 L 135.902344 172.542969 C 135.902344 172.261719 135.929688 171.988281 135.984375 171.714844 C 136.039062 171.441406 136.117188 171.175781 136.226562 170.917969 C 136.332031 170.660156 136.464844 170.414062 136.617188 170.183594 C 136.773438 169.949219 136.949219 169.734375 137.148438 169.539062 C 137.347656 169.339844 137.5625 169.164062 137.792969 169.007812 C 138.027344 168.855469 138.273438 168.722656 138.53125 168.617188 C 138.789062 168.511719 139.054688 168.429688 139.328125 168.375 C 139.601562 168.320312 139.878906 168.292969 140.160156 168.292969 L 233.855469 168.292969 C 234.136719 168.292969 234.414062 168.320312 234.6875 168.375 C 234.960938 168.429688 235.226562 168.511719 235.488281 168.617188 C 235.746094 168.722656 235.988281 168.855469 236.222656 169.007812 C 236.457031 169.164062 236.671875 169.339844 236.867188 169.539062 C 237.066406 169.734375 237.242188 169.949219 237.398438 170.183594 C 237.554688 170.414062 237.683594 170.660156 237.792969 170.917969 C 237.898438 171.175781 237.980469 171.441406 238.035156 171.714844 C 238.089844 171.988281 238.117188 172.261719 238.117188 172.542969 Z M 238.117188 206.523438 " fill-opacity="1" fill-rule="nonzero"/></g><path fill="#000000" d="M 199.785156 193.78125 L 174.230469 193.78125 C 173.953125 193.78125 173.675781 193.808594 173.402344 193.863281 C 173.125 193.917969 172.859375 193.996094 172.601562 194.105469 C 172.34375 194.210938 172.097656 194.34375 171.867188 194.496094 C 171.632812 194.652344 171.417969 194.828125 171.21875 195.027344 C 171.023438 195.222656 170.847656 195.4375 170.691406 195.667969 C 170.535156 195.902344 170.402344 196.144531 170.296875 196.402344 C 170.191406 196.660156 170.109375 196.925781 170.054688 197.199219 C 170 197.472656 169.972656 197.75 169.972656 198.027344 C 169.972656 198.308594 170 198.585938 170.054688 198.859375 C 170.109375 199.132812 170.191406 199.398438 170.296875 199.65625 C 170.402344 199.914062 170.535156 200.15625 170.691406 200.390625 C 170.847656 200.621094 171.023438 200.835938 171.21875 201.03125 C 171.417969 201.230469 171.632812 201.40625 171.867188 201.5625 C 172.097656 201.714844 172.34375 201.847656 172.601562 201.953125 C 172.859375 202.058594 173.125 202.140625 173.402344 202.195312 C 173.675781 202.25 173.953125 202.277344 174.230469 202.277344 L 199.785156 202.277344 C 200.066406 202.277344 200.339844 202.25 200.617188 202.195312 C 200.890625 202.140625 201.15625 202.058594 201.414062 201.953125 C 201.671875 201.847656 201.917969 201.714844 202.152344 201.5625 C 202.382812 201.40625 202.597656 201.230469 202.796875 201.03125 C 202.996094 200.835938 203.171875 200.621094 203.328125 200.390625 C 203.480469 200.15625 203.613281 199.914062 203.71875 199.65625 C 203.828125 199.398438 203.90625 199.132812 203.960938 198.859375 C 204.015625 198.585938 204.042969 198.308594 204.042969 198.027344 C 204.042969 197.75 204.015625 197.472656 203.960938 197.199219 C 203.90625 196.925781 203.828125 196.660156 203.71875 196.402344 C 203.613281 196.144531 203.480469 195.902344 203.328125 195.667969 C 203.171875 195.4375 202.996094 195.222656 202.796875 195.027344 C 202.597656 194.828125 202.382812 194.652344 202.152344 194.496094 C 201.917969 194.34375 201.671875 194.210938 201.414062 194.105469 C 201.15625 193.996094 200.890625 193.917969 200.617188 193.863281 C 200.339844 193.808594 200.066406 193.78125 199.785156 193.78125 Z M 199.785156 193.78125 " fill-opacity="1" fill-rule="nonzero"/><path fill="#000000" d="M 157.195312 176.789062 L 152.9375 176.789062 C 152.65625 176.789062 152.378906 176.816406 152.105469 176.871094 C 151.832031 176.925781 151.566406 177.007812 151.308594 177.113281 C 151.046875 177.21875 150.804688 177.351562 150.570312 177.503906 C 150.339844 177.660156 150.125 177.835938 149.925781 178.035156 C 149.726562 178.230469 149.550781 178.445312 149.394531 178.675781 C 149.242188 178.910156 149.109375 179.152344 149.003906 179.410156 C 148.894531 179.667969 148.8125 179.933594 148.761719 180.207031 C 148.707031 180.480469 148.679688 180.757812 148.679688 181.039062 C 148.679688 181.316406 148.707031 181.59375 148.761719 181.867188 C 148.8125 182.140625 148.894531 182.40625 149.003906 182.664062 C 149.109375 182.921875 149.242188 183.164062 149.394531 183.398438 C 149.550781 183.628906 149.726562 183.84375 149.925781 184.042969 C 150.125 184.238281 150.339844 184.414062 150.570312 184.570312 C 150.804688 184.722656 151.046875 184.855469 151.308594 184.960938 C 151.566406 185.070312 151.832031 185.148438 152.105469 185.203125 C 152.378906 185.257812 152.65625 185.285156 152.9375 185.285156 L 157.195312 185.285156 C 157.476562 185.285156 157.753906 185.257812 158.027344 185.203125 C 158.300781 185.148438 158.566406 185.070312 158.824219 184.960938 C 159.085938 184.855469 159.328125 184.722656 159.5625 184.570312 C 159.792969 184.414062 160.007812 184.238281 160.207031 184.042969 C 160.40625 183.84375 160.582031 183.628906 160.738281 183.398438 C 160.890625 183.164062 161.023438 182.921875 161.128906 182.664062 C 161.238281 182.40625 161.320312 182.140625 161.371094 181.867188 C 161.425781 181.59375 161.453125 181.316406 161.453125 181.039062 C 161.453125 180.757812 161.425781 180.480469 161.371094 180.207031 C 161.320312 179.933594 161.238281 179.667969 161.128906 179.410156 C 161.023438 179.152344 160.890625 178.910156 160.738281 178.675781 C 160.582031 178.445312 160.40625 178.230469 160.207031 178.035156 C 160.007812 177.835938 159.792969 177.660156 159.5625 177.503906 C 159.328125 177.351562 159.085938 177.21875 158.824219 177.113281 C 158.566406 177.007812 158.300781 176.925781 158.027344 176.871094 C 157.753906 176.816406 157.476562 176.789062 157.195312 176.789062 Z M 157.195312 176.789062 " fill-opacity="1" fill-rule="nonzero"/><path fill="#000000" d="M 174.230469 185.285156 L 178.492188 185.285156 C 178.769531 185.285156 179.046875 185.257812 179.320312 185.203125 C 179.59375 185.148438 179.863281 185.070312 180.121094 184.960938 C 180.378906 184.855469 180.625 184.722656 180.855469 184.570312 C 181.089844 184.414062 181.304688 184.238281 181.503906 184.042969 C 181.699219 183.84375 181.875 183.628906 182.03125 183.398438 C 182.1875 183.164062 182.316406 182.921875 182.425781 182.664062 C 182.53125 182.40625 182.613281 182.140625 182.667969 181.867188 C 182.722656 181.59375 182.75 181.316406 182.75 181.039062 C 182.75 180.757812 182.722656 180.480469 182.667969 180.207031 C 182.613281 179.933594 182.53125 179.667969 182.425781 179.410156 C 182.316406 179.152344 182.1875 178.910156 182.03125 178.675781 C 181.875 178.445312 181.699219 178.230469 181.503906 178.035156 C 181.304688 177.835938 181.089844 177.660156 180.855469 177.503906 C 180.625 177.351562 180.378906 177.21875 180.121094 177.113281 C 179.863281 177.007812 179.59375 176.925781 179.320312 176.871094 C 179.046875 176.816406 178.769531 176.789062 178.492188 176.789062 L 174.230469 176.789062 C 173.953125 176.789062 173.675781 176.816406 173.402344 176.871094 C 173.125 176.925781 172.859375 177.007812 172.601562 177.113281 C 172.34375 177.21875 172.097656 177.351562 171.867188 177.503906 C 171.632812 177.660156 171.417969 177.835938 171.21875 178.035156 C 171.023438 178.230469 170.847656 178.445312 170.691406 178.675781 C 170.535156 178.910156 170.402344 179.152344 170.296875 179.410156 C 170.191406 179.667969 170.109375 179.933594 170.054688 180.207031 C 170 180.480469 169.972656 180.757812 169.972656 181.039062 C 169.972656 181.316406 170 181.59375 170.054688 181.867188 C 170.109375 182.140625 170.191406 182.40625 170.296875 182.664062 C 170.402344 182.921875 170.535156 183.164062 170.691406 183.398438 C 170.847656 183.628906 171.023438 183.84375 171.21875 184.042969 C 171.417969 184.238281 171.632812 184.414062 171.867188 184.570312 C 172.097656 184.722656 172.34375 184.855469 172.601562 184.960938 C 172.859375 185.070312 173.125 185.148438 173.402344 185.203125 C 173.675781 185.257812 173.953125 185.285156 174.230469 185.285156 Z M 174.230469 185.285156 " fill-opacity="1" fill-rule="nonzero"/><path fill="#000000" d="M 199.785156 176.789062 L 195.527344 176.789062 C 195.246094 176.789062 194.96875 176.816406 194.695312 176.871094 C 194.421875 176.925781 194.15625 177.007812 193.894531 177.113281 C 193.636719 177.21875 193.390625 177.351562 193.160156 177.503906 C 192.925781 177.660156 192.710938 177.835938 192.515625 178.035156 C 192.316406 178.230469 192.140625 178.445312 191.984375 178.675781 C 191.828125 178.910156 191.699219 179.152344 191.589844 179.410156 C 191.484375 179.667969 191.402344 179.933594 191.347656 180.207031 C 191.292969 180.480469 191.265625 180.757812 191.265625 181.039062 C 191.265625 181.316406 191.292969 181.59375 191.347656 181.867188 C 191.402344 182.140625 191.484375 182.40625 191.589844 182.664062 C 191.699219 182.921875 191.828125 183.164062 191.984375 183.398438 C 192.140625 183.628906 192.316406 183.84375 192.515625 184.042969 C 192.710938 184.238281 192.925781 184.414062 193.160156 184.570312 C 193.390625 184.722656 193.636719 184.855469 193.894531 184.960938 C 194.15625 185.070312 194.421875 185.148438 194.695312 185.203125 C 194.96875 185.257812 195.246094 185.285156 195.527344 185.285156 L 199.785156 185.285156 C 200.066406 185.285156 200.339844 185.257812 200.617188 185.203125 C 200.890625 185.148438 201.15625 185.070312 201.414062 184.960938 C 201.671875 184.855469 201.917969 184.722656 202.152344 184.570312 C 202.382812 184.414062 202.597656 184.238281 202.796875 184.042969 C 202.996094 183.84375 203.171875 183.628906 203.328125 183.398438 C 203.480469 183.164062 203.613281 182.921875 203.71875 182.664062 C 203.828125 182.40625 203.90625 182.140625 203.960938 181.867188 C 204.015625 181.59375 204.042969 181.316406 204.042969 181.039062 C 204.042969 180.757812 204.015625 180.480469 203.960938 180.207031 C 203.90625 179.933594 203.828125 179.667969 203.71875 179.410156 C 203.613281 179.152344 203.480469 178.910156 203.328125 178.675781 C 203.171875 178.445312 202.996094 178.230469 202.796875 178.035156 C 202.597656 177.835938 202.382812 177.660156 202.152344 177.503906 C 201.917969 177.351562 201.671875 177.21875 201.414062 177.113281 C 201.15625 177.007812 200.890625 176.925781 200.617188 176.871094 C 200.339844 176.816406 200.066406 176.789062 199.785156 176.789062 Z M 199.785156 176.789062 " fill-opacity="1" fill-rule="nonzero"/><path fill="#000000" d="M 221.078125 176.789062 L 216.820312 176.789062 C 216.542969 176.789062 216.265625 176.816406 215.988281 176.871094 C 215.714844 176.925781 215.449219 177.007812 215.191406 177.113281 C 214.933594 177.21875 214.6875 177.351562 214.453125 177.503906 C 214.222656 177.660156 214.007812 177.835938 213.808594 178.035156 C 213.613281 178.230469 213.433594 178.445312 213.28125 178.675781 C 213.125 178.910156 212.992188 179.152344 212.886719 179.410156 C 212.777344 179.667969 212.699219 179.933594 212.644531 180.207031 C 212.589844 180.480469 212.5625 180.757812 212.5625 181.039062 C 212.5625 181.316406 212.589844 181.59375 212.644531 181.867188 C 212.699219 182.140625 212.777344 182.40625 212.886719 182.664062 C 212.992188 182.921875 213.125 183.164062 213.28125 183.398438 C 213.433594 183.628906 213.613281 183.84375 213.808594 184.042969 C 214.007812 184.238281 214.222656 184.414062 214.453125 184.570312 C 214.6875 184.722656 214.933594 184.855469 215.191406 184.960938 C 215.449219 185.070312 215.714844 185.148438 215.988281 185.203125 C 216.265625 185.257812 216.542969 185.285156 216.820312 185.285156 L 221.078125 185.285156 C 221.359375 185.285156 221.636719 185.257812 221.910156 185.203125 C 222.183594 185.148438 222.453125 185.070312 222.710938 184.960938 C 222.96875 184.855469 223.214844 184.722656 223.445312 184.570312 C 223.679688 184.414062 223.894531 184.238281 224.089844 184.042969 C 224.289062 183.84375 224.464844 183.628906 224.621094 183.398438 C 224.777344 183.164062 224.90625 182.921875 225.015625 182.664062 C 225.121094 182.40625 225.203125 182.140625 225.257812 181.867188 C 225.3125 181.59375 225.339844 181.316406 225.339844 181.039062 C 225.339844 180.757812 225.3125 180.480469 225.257812 180.207031 C 225.203125 179.933594 225.121094 179.667969 225.015625 179.410156 C 224.90625 179.152344 224.777344 178.910156 224.621094 178.675781 C 224.464844 178.445312 224.289062 178.230469 224.089844 178.035156 C 223.894531 177.835938 223.679688 177.660156 223.445312 177.503906 C 223.214844 177.351562 222.96875 177.21875 222.710938 177.113281 C 222.453125 177.007812 222.183594 176.925781 221.910156 176.871094 C 221.636719 176.816406 221.359375 176.789062 221.078125 176.789062 Z M 221.078125 176.789062 " fill-opacity="1" fill-rule="nonzero"/><path fill="#000000" d="M 157.195312 193.78125 L 152.9375 193.78125 C 152.65625 193.78125 152.378906 193.808594 152.105469 193.863281 C 151.832031 193.917969 151.566406 193.996094 151.308594 194.105469 C 151.046875 194.210938 150.804688 194.34375 150.570312 194.496094 C 150.339844 194.652344 150.125 194.828125 149.925781 195.027344 C 149.726562 195.222656 149.550781 195.4375 149.394531 195.667969 C 149.242188 195.902344 149.109375 196.144531 149.003906 196.402344 C 148.894531 196.660156 148.8125 196.925781 148.761719 197.199219 C 148.707031 197.472656 148.679688 197.75 148.679688 198.027344 C 148.679688 198.308594 148.707031 198.585938 148.761719 198.859375 C 148.8125 199.132812 148.894531 199.398438 149.003906 199.65625 C 149.109375 199.914062 149.242188 200.15625 149.394531 200.390625 C 149.550781 200.621094 149.726562 200.835938 149.925781 201.03125 C 150.125 201.230469 150.339844 201.40625 150.570312 201.5625 C 150.804688 201.714844 151.046875 201.847656 151.308594 201.953125 C 151.566406 202.058594 151.832031 202.140625 152.105469 202.195312 C 152.378906 202.25 152.65625 202.277344 152.9375 202.277344 L 157.195312 202.277344 C 157.476562 202.277344 157.753906 202.25 158.027344 202.195312 C 158.300781 202.140625 158.566406 202.058594 158.824219 201.953125 C 159.085938 201.847656 159.328125 201.714844 159.5625 201.5625 C 159.792969 201.40625 160.007812 201.230469 160.207031 201.03125 C 160.40625 200.835938 160.582031 200.621094 160.738281 200.390625 C 160.890625 200.15625 161.023438 199.914062 161.128906 199.65625 C 161.238281 199.398438 161.320312 199.132812 161.371094 198.859375 C 161.425781 198.585938 161.453125 198.308594 161.453125 198.027344 C 161.453125 197.75 161.425781 197.472656 161.371094 197.199219 C 161.320312 196.925781 161.238281 196.660156 161.128906 196.402344 C 161.023438 196.144531 160.890625 195.902344 160.738281 195.667969 C 160.582031 195.4375 160.40625 195.222656 160.207031 195.027344 C 160.007812 194.828125 159.792969 194.652344 159.5625 194.496094 C 159.328125 194.34375 159.085938 194.210938 158.824219 194.105469 C 158.566406 193.996094 158.300781 193.917969 158.027344 193.863281 C 157.753906 193.808594 157.476562 193.78125 157.195312 193.78125 Z M 157.195312 193.78125 " fill-opacity="1" fill-rule="nonzero"/><path fill="#000000" d="M 221.078125 193.78125 L 216.820312 193.78125 C 216.542969 193.78125 216.265625 193.808594 215.988281 193.863281 C 215.714844 193.917969 215.449219 193.996094 215.191406 194.105469 C 214.933594 194.210938 214.6875 194.34375 214.453125 194.496094 C 214.222656 194.652344 214.007812 194.828125 213.808594 195.027344 C 213.613281 195.222656 213.433594 195.4375 213.28125 195.667969 C 213.125 195.902344 212.992188 196.144531 212.886719 196.402344 C 212.777344 196.660156 212.699219 196.925781 212.644531 197.199219 C 212.589844 197.472656 212.5625 197.75 212.5625 198.027344 C 212.5625 198.308594 212.589844 198.585938 212.644531 198.859375 C 212.699219 199.132812 212.777344 199.398438 212.886719 199.65625 C 212.992188 199.914062 213.125 200.15625 213.28125 200.390625 C 213.433594 200.621094 213.613281 200.835938 213.808594 201.03125 C 214.007812 201.230469 214.222656 201.40625 214.453125 201.5625 C 214.6875 201.714844 214.933594 201.847656 215.191406 201.953125 C 215.449219 202.058594 215.714844 202.140625 215.988281 202.195312 C 216.265625 202.25 216.542969 202.277344 216.820312 202.277344 L 221.078125 202.277344 C 221.359375 202.277344 221.636719 202.25 221.910156 202.195312 C 222.183594 202.140625 222.453125 202.058594 222.710938 201.953125 C 222.96875 201.847656 223.214844 201.714844 223.445312 201.5625 C 223.679688 201.40625 223.894531 201.230469 224.089844 201.03125 C 224.289062 200.835938 224.464844 200.621094 224.621094 200.390625 C 224.777344 200.15625 224.90625 199.914062 225.015625 199.65625 C 225.121094 199.398438 225.203125 199.132812 225.257812 198.859375 C 225.3125 198.585938 225.339844 198.308594 225.339844 198.027344 C 225.339844 197.75 225.3125 197.472656 225.257812 197.199219 C 225.203125 196.925781 225.121094 196.660156 225.015625 196.402344 C 224.90625 196.144531 224.777344 195.902344 224.621094 195.667969 C 224.464844 195.4375 224.289062 195.222656 224.089844 195.027344 C 223.894531 194.828125 223.679688 194.652344 223.445312 194.496094 C 223.214844 194.34375 222.96875 194.210938 222.710938 194.105469 C 222.453125 193.996094 222.183594 193.917969 221.910156 193.863281 C 221.636719 193.808594 221.359375 193.78125 221.078125 193.78125 Z M 221.078125 193.78125 " fill-opacity="1" fill-rule="nonzero"/><g fill="#000000" fill-opacity="1"><g transform="translate(41.741819, 230.206497)"><g><path d="M 44.9375 0 L 7.140625 0 C 6.128906 0 5.625 -0.46875 5.625 -1.40625 L 5.625 -7.375 C 5.625 -8.3125 6.128906 -8.78125 7.140625 -8.78125 L 16.03125 -8.78125 L 16.03125 -75.25 L 7.140625 -75.25 C 6.128906 -75.25 5.625 -75.71875 5.625 -76.65625 L 5.625 -82.625 C 5.625 -83.5625 6.128906 -84.03125 7.140625 -84.03125 L 44.828125 -84.03125 C 52.628906 -84.03125 58.691406 -81.960938 63.015625 -77.828125 C 67.347656 -73.691406 69.515625 -68.269531 69.515625 -61.5625 C 69.515625 -53.675781 66.039062 -47.785156 59.09375 -43.890625 C 69.082031 -41.003906 74.078125 -34.367188 74.078125 -23.984375 C 74.078125 -16.648438 71.640625 -10.816406 66.765625 -6.484375 C 61.890625 -2.160156 54.613281 0 44.9375 0 Z M 26.21875 -8.78125 L 44.125 -8.78125 C 50.28125 -8.78125 55.09375 -10.085938 58.5625 -12.703125 C 62.039062 -15.316406 63.78125 -19.351562 63.78125 -24.8125 C 63.78125 -34.5625 57.460938 -39.4375 44.828125 -39.4375 L 26.21875 -39.4375 Z M 26.21875 -47.15625 L 44.125 -47.15625 C 48.175781 -47.238281 51.703125 -48.410156 54.703125 -50.671875 C 57.710938 -52.929688 59.21875 -56.476562 59.21875 -61.3125 C 59.21875 -66.15625 57.632812 -69.6875 54.46875 -71.90625 C 51.3125 -74.132812 47.429688 -75.25 42.828125 -75.25 L 26.21875 -75.25 Z M 26.21875 -47.15625 "/></g></g></g></svg>