<svg xmlns="http://www.w3.org/2000/svg" xmlns:xlink="http://www.w3.org/1999/xlink" width="500" zoomAndPan="magnify" viewBox="0 0 375 374.999991" height="500" preserveAspectRatio="xMidYMid meet" version="1.0"><defs><g/></defs><rect x="-37.5" width="450" fill="#ffffff" y="-37.499999" height="449.999989" fill-opacity="1"/><rect x="-37.5" width="450" fill="#ffffff" y="-37.499999" height="449.999989" fill-opacity="1"/><rect x="-37.5" width="450" fill="#93c5fd" y="-37.499999" height="449.999989" fill-opacity="1"/><g fill="#000000" fill-opacity="1"><g transform="translate(51.270363, 332.999978)"><g><path d="M 153.625 0 L 24.40625 0 C 20.9375 0 19.203125 -1.597656 19.203125 -4.796875 L 19.203125 -25.203125 C 19.203125 -28.398438 20.9375 -30 24.40625 -30 L 54.8125 -30 L 54.8125 -257.25 L 24.40625 -257.25 C 20.9375 -257.25 19.203125 -258.847656 19.203125 -262.046875 L 19.203125 -282.453125 C 19.203125 -285.648438 20.9375 -287.25 24.40625 -287.25 L 153.234375 -287.25 C 179.898438 -287.25 200.632812 -280.179688 215.4375 -266.046875 C 230.238281 -251.910156 237.640625 -233.375 237.640625 -210.4375 C 237.640625 -183.5 225.773438 -163.363281 202.046875 -150.03125 C 236.179688 -140.15625 253.25 -117.484375 253.25 -82.015625 C 253.25 -56.941406 244.910156 -37.003906 228.234375 -22.203125 C 211.566406 -7.398438 186.695312 0 153.625 0 Z M 89.625 -30 L 150.828125 -30 C 171.898438 -30 188.367188 -34.46875 200.234375 -43.40625 C 212.109375 -52.34375 218.046875 -66.144531 218.046875 -84.8125 C 218.046875 -118.15625 196.441406 -134.828125 153.234375 -134.828125 L 89.625 -134.828125 Z M 89.625 -161.234375 L 150.828125 -161.234375 C 164.703125 -161.492188 176.769531 -165.492188 187.03125 -173.234375 C 197.300781 -180.972656 202.4375 -193.109375 202.4375 -209.640625 C 202.4375 -226.179688 197.035156 -238.25 186.234375 -245.84375 C 175.429688 -253.445312 162.160156 -257.25 146.421875 -257.25 L 89.625 -257.25 Z M 89.625 -161.234375 "/></g></g></g></svg>
